<svg width="237" height="40" viewBox="0 0 237 40" fill="none" xmlns="http://www.w3.org/2000/svg">
<path d="M96.7471 0L116.053 19.3034V0H96.7471Z" fill="#1A56DB"/>
<path d="M116.053 39.9329V29.0815H105.201L116.053 39.9329Z" fill="white"/>
<path d="M0 0.00271606L39.9974 40.0001V20.6942L19.306 0.00271606H0Z" fill="#1A56DB"/>
<path d="M59.8499 10.3457L49.5068 0.00257463H30.1982L70.1982 40V36.1636V20.694V0L59.8499 10.3457Z" fill="#1A56DB"/>
<path d="M76.7539 20C76.7539 31.0397 85.7039 39.9923 96.7462 39.9923V0.010313C85.7064 0.010313 76.7539 8.96027 76.7539 20.0026V20Z" fill="#1A56DB"/>
<path d="M147.513 5.99071L145.681 11.1171C145.611 11.3132 145.552 11.517 145.495 11.7234C145.441 11.9298 145.387 12.1388 145.333 12.3504C145.281 12.5516 145.24 12.7477 145.206 12.936C145.139 12.7012 145.075 12.4665 144.987 12.211C144.868 11.8653 144.739 11.517 144.602 11.161L143.065 7.33488H140.996L139.43 11.1765C139.301 11.5119 139.185 11.8473 139.076 12.1801C138.988 12.4484 138.921 12.7064 138.857 12.9644C138.836 12.8767 138.823 12.7967 138.803 12.7038C138.738 12.4329 138.669 12.1646 138.589 11.8989C138.509 11.6331 138.436 11.3906 138.367 11.1739L136.697 5.98813H134.112L137.541 16.3313H139.61L141.948 10.5315L144.368 16.3313H146.287L150.01 5.98813H147.513V5.99071ZM156.437 12.0924H161.86V10.0542H156.437V8.13467H162.523V5.99329H153.999V16.3364H162.673V14.195H156.437V12.0975V12.0924ZM174.832 16.1713C175.315 16.063 175.756 15.8875 176.156 15.6476C176.556 15.4051 176.873 15.0851 177.108 14.6878C177.345 14.2879 177.461 13.7952 177.461 13.2018C177.461 12.709 177.35 12.2859 177.128 11.9298C176.906 11.5764 176.61 11.2848 176.236 11.0578C175.985 10.9081 175.717 10.7946 175.438 10.7018C175.856 10.5366 176.187 10.307 176.429 10.0077C176.754 9.60526 176.917 9.11248 176.917 8.52941C176.917 7.99793 176.77 7.54386 176.473 7.16976C176.176 6.79567 175.74 6.50413 175.165 6.29773C174.59 6.09133 173.883 5.98813 173.044 5.98813H167.637V16.3313H173.354C173.857 16.3313 174.35 16.2771 174.832 16.1687V16.1713ZM170 8.08823H172.851C173.323 8.08823 173.707 8.16821 174.004 8.32559C174.298 8.48297 174.448 8.73065 174.448 9.06347C174.448 9.28018 174.383 9.46336 174.254 9.61042C174.125 9.75748 173.952 9.87358 173.73 9.95872C173.509 10.0439 173.245 10.0851 172.941 10.0851H170V8.09081V8.08823ZM170 11.9737H173.279C173.545 11.9737 173.81 12.0072 174.076 12.0769C174.342 12.1465 174.561 12.2626 174.734 12.4252C174.907 12.5877 174.992 12.807 174.992 13.0831C174.992 13.3385 174.92 13.5526 174.778 13.7255C174.636 13.8983 174.44 14.0273 174.195 14.1099C173.947 14.195 173.666 14.2363 173.351 14.2363H169.997V11.9763L170 11.9737ZM190.536 8.54489C190.536 8.88029 190.536 9.20536 190.544 9.52012C190.549 9.83488 190.56 10.1419 190.573 10.436C190.588 10.7327 190.604 11.0294 190.624 11.3287C190.642 11.6305 190.671 11.9453 190.704 12.2755C190.725 12.4716 190.753 12.6806 190.779 12.8844L184.476 5.98813H182.141V16.3313H184.579V12.8741C184.579 12.5103 184.574 12.1801 184.564 11.8834C184.553 11.5867 184.541 11.308 184.528 11.0423C184.512 10.7766 184.492 10.5237 184.461 10.2812C184.43 10.0387 184.404 9.80134 184.381 9.56398C184.381 9.55366 184.378 9.54334 184.375 9.53302L190.606 16.3313H192.972V5.98813H190.534V8.54489H190.536ZM209.388 10.614H203.671V12.5645H206.95C206.922 12.7477 206.868 12.9231 206.759 13.0882C206.602 13.3308 206.385 13.5371 206.109 13.7074C205.833 13.8803 205.503 14.0144 205.118 14.1151C204.734 14.2131 204.321 14.2621 203.878 14.2621C203.395 14.2621 202.936 14.195 202.502 14.0635C202.069 13.9319 201.685 13.7384 201.349 13.4881C201.014 13.2379 200.751 12.9128 200.56 12.5129C200.369 12.113 200.271 11.6486 200.271 11.1171C200.271 10.6734 200.361 10.2632 200.544 9.8839C200.727 9.50464 200.98 9.1744 201.305 8.89319C201.63 8.61197 202.012 8.39267 202.451 8.2353C202.889 8.07792 203.364 7.99793 203.878 7.99793C204.321 7.99793 204.731 8.05211 205.111 8.16047C205.49 8.26883 205.841 8.40557 206.166 8.56811C206.491 8.73065 206.795 8.92931 207.082 9.16666L208.604 7.49742C208.307 7.19298 207.926 6.91176 207.459 6.65634C206.992 6.40092 206.458 6.19195 205.862 6.02941C205.266 5.86687 204.608 5.78432 203.89 5.78432C202.995 5.78432 202.164 5.91847 201.401 6.18421C200.637 6.44995 199.974 6.82405 199.414 7.3065C198.852 7.78896 198.416 8.35397 198.106 8.99897C197.797 9.64396 197.642 10.3509 197.642 11.1197C197.642 11.9659 197.789 12.7245 198.085 13.3953C198.382 14.066 198.795 14.6285 199.326 15.0877C199.858 15.547 200.487 15.8927 201.218 16.13C201.945 16.3674 202.745 16.4835 203.612 16.4835C204.479 16.4835 205.255 16.3803 205.975 16.1739C206.695 15.9675 207.311 15.6682 207.83 15.2812C208.346 14.8916 208.746 14.4118 209.027 13.8416C209.308 13.2714 209.448 12.6161 209.448 11.8756V11.5815C209.448 11.4345 209.443 11.2719 209.432 11.0939C209.422 10.9159 209.409 10.7585 209.388 10.6218V10.614ZM138.416 26.6228C138.736 26.3622 139.092 26.1636 139.486 26.032C139.881 25.8978 140.294 25.8333 140.727 25.8333C141.199 25.8333 141.625 25.8875 142.004 25.9959C142.384 26.1042 142.727 26.2487 143.031 26.4319C143.336 26.6151 143.617 26.8189 143.872 27.0459L145.335 25.1264C145 24.822 144.595 24.5485 144.117 24.306C143.64 24.0635 143.122 23.8725 142.567 23.7306C142.01 23.5888 141.432 23.5165 140.831 23.5165C139.984 23.5165 139.192 23.6455 138.46 23.9009C137.724 24.1563 137.087 24.5253 136.545 25.0077C136.003 25.4902 135.575 26.0578 135.26 26.7079C134.946 27.3581 134.788 28.0727 134.788 28.8493C134.788 29.6259 134.94 30.3741 135.247 31.0294C135.552 31.6847 135.978 32.2497 136.525 32.7296C137.072 33.2069 137.709 33.5733 138.439 33.8313C139.169 34.0867 139.961 34.2157 140.818 34.2157C141.447 34.2157 142.053 34.1357 142.634 33.9706C143.214 33.8081 143.738 33.6042 144.208 33.3566C144.675 33.1115 145.046 32.8586 145.322 32.6032L144.125 30.6682C143.898 30.8566 143.632 31.0449 143.328 31.2384C143.021 31.4293 142.68 31.5918 142.301 31.726C141.922 31.8576 141.496 31.9247 141.024 31.9247C140.552 31.9247 140.067 31.8576 139.628 31.726C139.19 31.5918 138.803 31.3958 138.47 31.1352C138.134 30.8746 137.869 30.5547 137.673 30.1754C137.477 29.7962 137.376 29.3653 137.376 28.8829C137.376 28.4004 137.469 27.9695 137.657 27.5903C137.843 27.211 138.098 26.8911 138.418 26.6305L138.416 26.6228ZM159.59 25.0129C159.043 24.5253 158.398 24.1486 157.655 23.8829C156.912 23.6171 156.091 23.483 155.193 23.483C154.295 23.483 153.48 23.6197 152.74 23.8906C152.002 24.1615 151.357 24.5382 150.805 25.0206C150.253 25.5031 149.827 26.0707 149.528 26.7208C149.226 27.371 149.076 28.0805 149.076 28.8493C149.076 29.6182 149.226 30.3276 149.528 30.9778C149.827 31.628 150.253 32.193 150.8 32.6754C151.347 33.1579 151.992 33.5346 152.735 33.8055C153.478 34.0764 154.303 34.2131 155.209 34.2131C156.114 34.2131 156.909 34.079 157.655 33.8132C158.398 33.5475 159.043 33.1708 159.59 32.6832C160.137 32.1956 160.56 31.628 160.859 30.9778C161.158 30.3276 161.31 29.6182 161.31 28.8493C161.31 28.0805 161.161 27.371 160.859 26.7208C160.56 26.0707 160.134 25.5005 159.59 25.0155V25.0129ZM158.496 30.0284C158.323 30.3922 158.078 30.7095 157.758 30.9804C157.438 31.2513 157.061 31.4628 156.628 31.6151C156.194 31.7673 155.717 31.8447 155.196 31.8447C154.675 31.8447 154.21 31.7673 153.777 31.6151C153.343 31.4628 152.964 31.2539 152.639 30.9881C152.314 30.7224 152.066 30.4051 151.899 30.0361C151.731 29.6672 151.648 29.2699 151.648 28.8468C151.648 28.4236 151.731 28.0263 151.899 27.6574C152.066 27.2884 152.314 26.9711 152.639 26.7054C152.964 26.4396 153.343 26.2306 153.777 26.0784C154.21 25.9262 154.682 25.8488 155.196 25.8488C155.709 25.8488 156.194 25.9262 156.628 26.0784C157.061 26.2306 157.438 26.4422 157.758 26.7131C158.078 26.984 158.325 27.3013 158.496 27.6651C158.669 28.0289 158.754 28.4236 158.754 28.8468C158.754 29.2699 158.666 29.6646 158.496 30.0284ZM171.868 28.6481L168.24 23.7203H165.996V34.0635H168.434V30.7533C168.434 29.8865 168.411 29.097 168.367 28.3823C168.351 28.1269 168.325 27.8715 168.302 27.6161L171.359 31.5506H172.335L175.418 27.5826C175.392 27.8586 175.366 28.1347 175.351 28.4107C175.312 29.1254 175.291 29.9045 175.291 30.7533V34.0635H177.729V23.7203H175.513L171.873 28.6481H171.868ZM190.565 24.1641C190.023 23.8674 189.412 23.7203 188.733 23.7203H183.104V34.0635H185.614V30.694H188.54C189.259 30.694 189.902 30.5392 190.467 30.2296C191.034 29.92 191.486 29.4943 191.826 28.9525C192.164 28.4107 192.335 27.7941 192.335 27.1053C192.335 26.4654 192.175 25.8901 191.855 25.3767C191.535 24.8658 191.104 24.4608 190.562 24.1641H190.565ZM189.494 27.8354C189.352 28.0366 189.159 28.1966 188.919 28.3153C188.676 28.4339 188.408 28.4933 188.114 28.4933H185.573V25.9365H188.114C188.411 25.9365 188.676 25.9856 188.919 26.0836C189.161 26.1816 189.352 26.3209 189.494 26.4964C189.636 26.6744 189.708 26.8911 189.708 27.1465C189.708 27.402 189.636 27.6316 189.494 27.8328V27.8354ZM199.401 23.7203L194.644 34.0635H197.154L198.024 32.1723H202.967L203.834 34.0635H206.419L201.69 23.7203H199.399H199.401ZM198.893 30.2812L199.817 28.2714C199.904 28.0444 199.995 27.8302 200.082 27.629C200.17 27.4278 200.258 27.2214 200.34 27.015C200.4 26.8653 200.451 26.7183 200.506 26.5686C200.555 26.7105 200.604 26.8524 200.658 26.9917C200.738 27.193 200.82 27.402 200.908 27.6135C200.996 27.8251 201.086 28.0392 201.174 28.2559L202.1 30.2812H198.89H198.893ZM218.712 26.2771C218.712 26.6125 218.712 26.9376 218.72 27.2523C218.725 27.5671 218.736 27.8741 218.749 28.1682C218.764 28.4649 218.779 28.7616 218.8 29.0609C218.818 29.3627 218.847 29.6775 218.88 30.0077C218.901 30.2038 218.929 30.4128 218.955 30.6166L212.652 23.7203H210.317V34.0635H212.755V30.6063C212.755 30.2425 212.75 29.9123 212.74 29.6156C212.729 29.3189 212.717 29.0402 212.704 28.7745C212.688 28.5088 212.667 28.2559 212.637 28.0134C212.606 27.7709 212.58 27.5335 212.557 27.2962C212.557 27.2859 212.554 27.2755 212.551 27.2652L218.782 34.0635H221.145V23.7203H218.707V26.2771H218.712ZM234.035 23.7203L231.094 27.8199L228.036 23.7203H224.992L229.824 29.951V34.0635H232.35V29.8658L236.886 23.7203H234.035Z" fill="white"/>
</svg>
