<svg width="237" height="40" viewBox="0 0 237 40" fill="none" xmlns="http://www.w3.org/2000/svg">
<path d="M96.7466 -0.000141144L116.053 19.3033V-0.000141144H96.7466Z" fill="#1A56DB"/>
<path d="M116.053 39.9328V29.0814H105.201L116.053 39.9328Z" fill="#1E212B"/>
<path d="M0 0.00257492L39.9974 40V20.694L19.306 0.00257492H0Z" fill="#1A56DB"/>
<path d="M59.8504 10.3456L49.5073 0.00243348H30.1987L70.1987 39.9999V36.1634V20.6939V-0.000141144L59.8504 10.3456Z" fill="#1A56DB"/>
<path d="M76.7544 19.9999C76.7544 31.0396 85.7043 39.9921 96.7467 39.9921V0.0101719C85.7069 0.0101719 76.7544 8.96013 76.7544 20.0024V19.9999Z" fill="#1A56DB"/>
<path d="M147.513 5.99057L145.681 11.117C145.612 11.3131 145.552 11.5169 145.495 11.7233C145.441 11.9297 145.387 12.1387 145.333 12.3502C145.281 12.5515 145.24 12.7475 145.206 12.9359C145.139 12.7011 145.075 12.4663 144.987 12.2109C144.868 11.8652 144.739 11.5169 144.603 11.1609L143.065 7.33474H140.996L139.43 11.1763C139.301 11.5117 139.185 11.8471 139.076 12.1799C138.989 12.4483 138.922 12.7062 138.857 12.9642C138.836 12.8765 138.824 12.7966 138.803 12.7037C138.738 12.4328 138.669 12.1645 138.589 11.8987C138.509 11.633 138.437 11.3905 138.367 11.1737L136.698 5.98799H134.113L137.541 16.3311H139.61L141.948 10.5313L144.368 16.3311H146.287L150.01 5.98799H147.513V5.99057ZM156.437 12.0922H161.86V10.054H156.437V8.13453H162.523V5.99315H153.999V16.3363H162.673V14.1949H156.437V12.0974V12.0922ZM174.832 16.1712C175.315 16.0628 175.756 15.8874 176.156 15.6474C176.556 15.4049 176.873 15.085 177.108 14.6877C177.345 14.2878 177.461 13.795 177.461 13.2016C177.461 12.7088 177.35 12.2857 177.129 11.9297C176.907 11.5762 176.61 11.2847 176.236 11.0576C175.986 10.908 175.717 10.7945 175.439 10.7016C175.857 10.5365 176.187 10.3069 176.429 10.0076C176.754 9.60512 176.917 9.11234 176.917 8.52927C176.917 7.99779 176.77 7.54372 176.473 7.16962C176.177 6.79552 175.74 6.50399 175.165 6.29759C174.59 6.09119 173.883 5.98799 173.044 5.98799H167.637V16.3311H173.354C173.857 16.3311 174.35 16.2769 174.832 16.1686V16.1712ZM170 8.08809H172.851C173.323 8.08809 173.707 8.16807 174.004 8.32545C174.298 8.48283 174.448 8.73051 174.448 9.06333C174.448 9.28004 174.383 9.46322 174.254 9.61028C174.125 9.75734 173.953 9.87344 173.731 9.95858C173.509 10.0437 173.246 10.085 172.941 10.085H170V8.09067V8.08809ZM170 11.9735H173.279C173.545 11.9735 173.811 12.0071 174.076 12.0767C174.342 12.1464 174.561 12.2625 174.734 12.425C174.907 12.5876 174.992 12.8069 174.992 13.0829C174.992 13.3383 174.92 13.5525 174.778 13.7253C174.636 13.8982 174.44 14.0272 174.195 14.1098C173.947 14.1949 173.666 14.2362 173.351 14.2362H169.997V11.9761L170 11.9735ZM190.537 8.54475C190.537 8.88014 190.537 9.20522 190.544 9.51998C190.55 9.83474 190.56 10.1418 190.573 10.4359C190.588 10.7326 190.604 11.0293 190.624 11.3285C190.642 11.6304 190.671 11.9452 190.704 12.2754C190.725 12.4715 190.753 12.6804 190.779 12.8843L184.476 5.98799H182.141V16.3311H184.58V12.874C184.58 12.5102 184.574 12.1799 184.564 11.8832C184.554 11.5865 184.541 11.3079 184.528 11.0422C184.512 10.7764 184.492 10.5236 184.461 10.2811C184.43 10.0386 184.404 9.8012 184.381 9.56384C184.381 9.55352 184.378 9.5432 184.376 9.53288L190.606 16.3311H192.972V5.98799H190.534V8.54475H190.537ZM209.389 10.6139H203.671V12.5644H206.951C206.922 12.7475 206.868 12.923 206.76 13.0881C206.602 13.3306 206.386 13.537 206.109 13.7073C205.833 13.8801 205.503 14.0143 205.119 14.1149C204.734 14.213 204.322 14.262 203.878 14.262C203.395 14.262 202.936 14.1949 202.503 14.0633C202.069 13.9317 201.685 13.7382 201.349 13.488C201.014 13.2377 200.751 12.9127 200.56 12.5128C200.369 12.1129 200.271 11.6485 200.271 11.117C200.271 10.6732 200.361 10.263 200.544 9.88376C200.728 9.5045 200.98 9.17426 201.306 8.89305C201.631 8.61183 202.012 8.39253 202.451 8.23515C202.89 8.07778 203.364 7.99779 203.878 7.99779C204.322 7.99779 204.732 8.05197 205.111 8.16033C205.49 8.26869 205.841 8.40543 206.166 8.56797C206.491 8.7305 206.796 8.92916 207.082 9.16652L208.604 7.49728C208.308 7.19284 207.926 6.91162 207.459 6.6562C206.992 6.40078 206.458 6.19181 205.862 6.02927C205.266 5.86673 204.608 5.78417 203.891 5.78417C202.995 5.78417 202.165 5.91833 201.401 6.18407C200.637 6.44981 199.974 6.8239 199.414 7.30636C198.852 7.78882 198.416 8.35383 198.106 8.99883C197.797 9.64382 197.642 10.3507 197.642 11.1196C197.642 11.9658 197.789 12.7243 198.086 13.3951C198.382 14.0659 198.795 14.6283 199.327 15.0876C199.858 15.5468 200.488 15.8925 201.218 16.1299C201.945 16.3672 202.745 16.4833 203.612 16.4833C204.479 16.4833 205.255 16.3801 205.975 16.1737C206.695 15.9673 207.312 15.6681 207.83 15.2811C208.346 14.8915 208.746 14.4116 209.027 13.8414C209.309 13.2713 209.448 12.616 209.448 11.8755V11.5814C209.448 11.4343 209.443 11.2718 209.432 11.0938C209.422 10.9157 209.409 10.7584 209.389 10.6216V10.6139ZM138.416 26.6227C138.736 26.3621 139.092 26.1634 139.487 26.0318C139.881 25.8977 140.294 25.8332 140.728 25.8332C141.2 25.8332 141.625 25.8874 142.005 25.9957C142.384 26.1041 142.727 26.2486 143.032 26.4317C143.336 26.6149 143.617 26.8187 143.873 27.0458L145.335 25.1263C145 24.8218 144.595 24.5484 144.118 24.3058C143.64 24.0633 143.122 23.8724 142.567 23.7305C142.01 23.5886 141.432 23.5164 140.831 23.5164C139.985 23.5164 139.193 23.6454 138.46 23.9008C137.725 24.1562 137.087 24.5251 136.545 25.0076C136.004 25.4901 135.575 26.0576 135.261 26.7078C134.946 27.358 134.789 28.0726 134.789 28.8492C134.789 29.6258 134.941 30.374 135.248 31.0293C135.552 31.6846 135.978 32.2496 136.525 32.7295C137.072 33.2068 137.709 33.5731 138.439 33.8311C139.169 34.0865 139.961 34.2155 140.818 34.2155C141.447 34.2155 142.054 34.1356 142.634 33.9704C143.215 33.8079 143.738 33.6041 144.208 33.3564C144.675 33.1113 145.047 32.8585 145.323 32.6031L144.125 30.6681C143.898 30.8564 143.633 31.0447 143.328 31.2382C143.021 31.4292 142.681 31.5917 142.301 31.7259C141.922 31.8574 141.496 31.9245 141.024 31.9245C140.552 31.9245 140.067 31.8574 139.629 31.7259C139.19 31.5917 138.803 31.3956 138.47 31.1351C138.135 30.8745 137.869 30.5546 137.673 30.1753C137.477 29.796 137.376 29.3652 137.376 28.8827C137.376 28.4003 137.469 27.9694 137.657 27.5901C137.843 27.2109 138.099 26.891 138.419 26.6304L138.416 26.6227ZM159.59 25.0128C159.043 24.5251 158.398 24.1485 157.655 23.8827C156.912 23.617 156.091 23.4828 155.194 23.4828C154.296 23.4828 153.48 23.6196 152.74 23.8905C152.002 24.1614 151.357 24.538 150.805 25.0205C150.253 25.503 149.827 26.0705 149.528 26.7207C149.226 27.3709 149.076 28.0803 149.076 28.8492C149.076 29.618 149.226 30.3275 149.528 30.9777C149.827 31.6278 150.253 32.1928 150.8 32.6753C151.347 33.1577 151.992 33.5344 152.735 33.8053C153.478 34.0762 154.303 34.213 155.209 34.213C156.115 34.213 156.909 34.0788 157.655 33.8131C158.398 33.5473 159.043 33.1707 159.59 32.683C160.137 32.1954 160.56 31.6278 160.859 30.9777C161.158 30.3275 161.311 29.618 161.311 28.8492C161.311 28.0803 161.161 27.3709 160.859 26.7207C160.56 26.0705 160.134 25.5004 159.59 25.0153V25.0128ZM158.496 30.0282C158.323 30.392 158.078 30.7093 157.758 30.9802C157.438 31.2511 157.061 31.4627 156.628 31.6149C156.195 31.7671 155.717 31.8445 155.196 31.8445C154.675 31.8445 154.211 31.7671 153.777 31.6149C153.344 31.4627 152.964 31.2537 152.639 30.988C152.314 30.7223 152.067 30.4049 151.899 30.036C151.731 29.667 151.649 29.2697 151.649 28.8466C151.649 28.4235 151.731 28.0262 151.899 27.6572C152.067 27.2883 152.314 26.971 152.639 26.7052C152.964 26.4395 153.344 26.2305 153.777 26.0783C154.211 25.9261 154.683 25.8487 155.196 25.8487C155.71 25.8487 156.195 25.9261 156.628 26.0783C157.061 26.2305 157.438 26.4421 157.758 26.713C158.078 26.9839 158.326 27.3012 158.496 27.665C158.669 28.0288 158.754 28.4235 158.754 28.8466C158.754 29.2697 158.666 29.6645 158.496 30.0282ZM171.868 28.6479L168.241 23.7202H165.996V34.0633H168.434V30.7532C168.434 29.8863 168.411 29.0969 168.367 28.3822C168.351 28.1268 168.326 27.8714 168.302 27.616L171.36 31.5504H172.335L175.418 27.5824C175.392 27.8585 175.366 28.1345 175.351 28.4106C175.312 29.1252 175.292 29.9044 175.292 30.7532V34.0633H177.73V23.7202H175.513L171.873 28.6479H171.868ZM190.565 24.1639C190.023 23.8672 189.412 23.7202 188.733 23.7202H183.104V34.0633H185.614V30.6939H188.54C189.26 30.6939 189.902 30.5391 190.467 30.2295C191.035 29.9199 191.486 29.4942 191.827 28.9524C192.165 28.4106 192.335 27.794 192.335 27.1051C192.335 26.4653 192.175 25.89 191.855 25.3765C191.535 24.8657 191.104 24.4606 190.562 24.1639H190.565ZM189.494 27.8352C189.352 28.0365 189.159 28.1964 188.919 28.3151C188.677 28.4338 188.408 28.4931 188.114 28.4931H185.573V25.9364H188.114C188.411 25.9364 188.677 25.9854 188.919 26.0834C189.162 26.1815 189.352 26.3208 189.494 26.4962C189.636 26.6743 189.709 26.891 189.709 27.1464C189.709 27.4018 189.636 27.6314 189.494 27.8327V27.8352ZM199.402 23.7202L194.644 34.0633H197.154L198.024 32.1722H202.967L203.834 34.0633H206.419L201.69 23.7202H199.399H199.402ZM198.893 30.2811L199.817 28.2713C199.905 28.0442 199.995 27.8301 200.083 27.6289C200.17 27.4276 200.258 27.2212 200.341 27.0148C200.4 26.8652 200.452 26.7181 200.506 26.5685C200.555 26.7104 200.604 26.8523 200.658 26.9916C200.738 27.1928 200.82 27.4018 200.908 27.6134C200.996 27.8249 201.086 28.0391 201.174 28.2558L202.1 30.2811H198.891H198.893ZM218.713 26.2769C218.713 26.6123 218.713 26.9374 218.72 27.2522C218.726 27.5669 218.736 27.874 218.749 28.1681C218.764 28.4648 218.78 28.7615 218.8 29.0607C218.818 29.3626 218.847 29.6774 218.88 30.0076C218.901 30.2037 218.929 30.4127 218.955 30.6165L212.652 23.7202H210.317V34.0633H212.755V30.6061C212.755 30.2424 212.75 29.9121 212.74 29.6154C212.73 29.3187 212.717 29.0401 212.704 28.7744C212.688 28.5086 212.668 28.2558 212.637 28.0133C212.606 27.7708 212.58 27.5334 212.557 27.296C212.557 27.2857 212.554 27.2754 212.552 27.2651L218.782 34.0633H221.146V23.7202H218.707V26.2769H218.713ZM234.035 23.7202L231.094 27.8198L228.037 23.7202H224.992L229.825 29.9508V34.0633H232.35V29.8657L236.886 23.7202H234.035Z" fill="#1F2A37"/>
</svg>
