<svg xmlns="http://www.w3.org/2000/svg" width="24" height="24" viewBox="0 0 24 24" fill="none">
    <path fill-rule="evenodd" clip-rule="evenodd" d="M1.25 21C1.25 20.5858 1.58579 20.25 2 20.25H22C22.4142 20.25 22.75 20.5858 22.75 21C22.75 21.4142 22.4142 21.75 22 21.75H2C1.58579 21.75 1.25 21.4142 1.25 21Z" fill="#9CA3AF"/>
    <path d="M9 11H5C4.44772 11 4 11.4477 4 12V20C4 20.5523 4.44772 21 5 21H9C9.55228 21 10 20.5523 10 20V12C10 11.4477 9.55228 11 9 11Z" fill="#9CA3AF"/>
    <path fill-rule="evenodd" clip-rule="evenodd" d="M5 11.75C4.86193 11.75 4.75 11.8619 4.75 12V20C4.75 20.1381 4.86193 20.25 5 20.25H9C9.13807 20.25 9.25 20.1381 9.25 20V12C9.25 11.8619 9.13807 11.75 9 11.75H5ZM3.25 12C3.25 11.0335 4.0335 10.25 5 10.25H9C9.9665 10.25 10.75 11.0335 10.75 12V20C10.75 20.9665 9.9665 21.75 9 21.75H5C4.0335 21.75 3.25 20.9665 3.25 20V12Z" fill="#9CA3AF"/>
    <path d="M19 2H11C10.4477 2 10 2.44772 10 3V20C10 20.5523 10.4477 21 11 21H19C19.5523 21 20 20.5523 20 20V3C20 2.44772 19.5523 2 19 2Z" fill="#9CA3AF"/>
    <path fill-rule="evenodd" clip-rule="evenodd" d="M11 2.75C10.8619 2.75 10.75 2.86193 10.75 3V20C10.75 20.1381 10.8619 20.25 11 20.25H19C19.1381 20.25 19.25 20.1381 19.25 20V3C19.25 2.86193 19.1381 2.75 19 2.75H11ZM9.25 3C9.25 2.0335 10.0335 1.25 11 1.25H19C19.9665 1.25 20.75 2.0335 20.75 3V20C20.75 20.9665 19.9665 21.75 19 21.75H11C10.0335 21.75 9.25 20.9665 9.25 20V3Z" fill="#9CA3AF"/>
    <path fill-rule="evenodd" clip-rule="evenodd" d="M13.25 16.0042C13.25 15.5899 13.5858 15.2542 14 15.2542H16C16.4142 15.2542 16.75 15.5899 16.75 16.0042C16.75 16.4184 16.4142 16.7542 16 16.7542H14C13.5858 16.7542 13.25 16.4184 13.25 16.0042Z" fill="#FFFBFF"/>
    <path fill-rule="evenodd" clip-rule="evenodd" d="M5.25 16.0042C5.25 15.5899 5.58579 15.2542 6 15.2542H8C8.41421 15.2542 8.75 15.5899 8.75 16.0042C8.75 16.4184 8.41421 16.7542 8 16.7542H6C5.58579 16.7542 5.25 16.4184 5.25 16.0042Z" fill="#FFFBFF"/>
    <path fill-rule="evenodd" clip-rule="evenodd" d="M13.25 11.5042C13.25 11.0899 13.5858 10.7542 14 10.7542H16C16.4142 10.7542 16.75 11.0899 16.75 11.5042C16.75 11.9184 16.4142 12.2542 16 12.2542H14C13.5858 12.2542 13.25 11.9184 13.25 11.5042Z" fill="#FFFBFF"/>
    <path fill-rule="evenodd" clip-rule="evenodd" d="M13.25 7.00415C13.25 6.58994 13.5858 6.25415 14 6.25415H16C16.4142 6.25415 16.75 6.58994 16.75 7.00415C16.75 7.41836 16.4142 7.75415 16 7.75415H14C13.5858 7.75415 13.25 7.41836 13.25 7.00415Z" fill="#FFFBFF"/>
</svg>