<svg xmlns="http://www.w3.org/2000/svg" width="16" height="15" viewBox="0 0 16 15" fill="none">
    <path d="M6 9C7.45869 9 8.85722 9.57988 9.88867 10.6113C10.8016 11.5242 11.3592 12.7247 11.4756 14H0.524414C0.640819 12.7247 1.19843 11.5242 2.11133 10.6113C3.14278 9.57988 4.54131 9 6 9ZM13 4C13.1326 4 13.2597 4.05272 13.3535 4.14648C13.4473 4.24025 13.5 4.36739 13.5 4.5V6H15C15.1326 6 15.2597 6.05272 15.3535 6.14648C15.4473 6.24025 15.5 6.36739 15.5 6.5C15.5 6.63261 15.4473 6.75975 15.3535 6.85352C15.2597 6.94728 15.1326 7 15 7H13.5V8.5C13.5 8.63261 13.4473 8.75975 13.3535 8.85352C13.2597 8.94728 13.1326 9 13 9C12.8674 9 12.7403 8.94728 12.6465 8.85352C12.5527 8.75975 12.5 8.63261 12.5 8.5V7H11C10.8674 7 10.7403 6.94728 10.6465 6.85352C10.5527 6.75975 10.5 6.63261 10.5 6.5C10.5 6.36739 10.5527 6.24025 10.6465 6.14648C10.7403 6.05272 10.8674 6 11 6H12.5V4.5C12.5 4.36739 12.5527 4.24025 12.6465 4.14648C12.7403 4.05272 12.8674 4 13 4ZM6 1C6.66304 1 7.29874 1.26358 7.76758 1.73242C8.23642 2.20126 8.5 2.83696 8.5 3.5C8.5 4.16304 8.23642 4.79874 7.76758 5.26758C7.29874 5.73642 6.66304 6 6 6C5.33696 6 4.70126 5.73642 4.23242 5.26758C3.76358 4.79874 3.5 4.16304 3.5 3.5C3.5 2.83696 3.76358 2.20126 4.23242 1.73242C4.70126 1.26358 5.33696 1 6 1Z" fill="white" stroke="white"/>
</svg>