<svg xmlns="http://www.w3.org/2000/svg" width="24" height="24" viewBox="0 0 24 24" fill="none">
    <path d="M12 2C10.0222 2 8.08879 2.58649 6.4443 3.6853C4.79981 4.78412 3.51809 6.3459 2.76121 8.17317C2.00433 10.0004 1.8063 12.0111 2.19215 13.9509C2.578 15.8907 3.53041 17.6725 4.92894 19.0711C6.32746 20.4696 8.10929 21.422 10.0491 21.8079C11.9889 22.1937 13.9996 21.9957 15.8268 21.2388C17.6541 20.4819 19.2159 19.2002 20.3147 17.5557C21.4135 15.9112 22 13.9778 22 12C21.9971 9.34873 20.9426 6.80688 19.0679 4.93215C17.1931 3.05742 14.6513 2.00291 12 2ZM12 7C12.5933 7 13.1734 7.17595 13.6667 7.50559C14.1601 7.83524 14.5446 8.30377 14.7716 8.85195C14.9987 9.40013 15.0581 10.0033 14.9424 10.5853C14.8266 11.1672 14.5409 11.7018 14.1213 12.1213C13.7018 12.5409 13.1672 12.8266 12.5853 12.9424C12.0033 13.0581 11.4001 12.9987 10.852 12.7716C10.3038 12.5446 9.83524 12.1601 9.5056 11.6667C9.17595 11.1734 9 10.5933 9 10C9 9.20435 9.31607 8.44129 9.87868 7.87868C10.4413 7.31607 11.2044 7 12 7ZM12 20C10.2392 20.0019 8.51699 19.4843 7.049 18.512C7.16502 17.5451 7.63092 16.6541 8.35879 16.0071C9.08666 15.3601 10.0262 15.0019 11 15H13C13.9739 15.0019 14.9134 15.3601 15.6412 16.0071C16.3691 16.6541 16.835 17.5451 16.951 18.512C15.483 19.4843 13.7608 20.0019 12 20Z" fill="#9CA3AF"/>
</svg>