<svg xmlns="http://www.w3.org/2000/svg" width="22" height="22" viewBox="0 0 22 22" fill="none">
    <path d="M13.25 0.394775C13.6743 0.394775 14.0818 0.562493 14.3818 0.862549C14.6819 1.16261 14.8496 1.57004 14.8496 1.99438V6.49438C14.8496 6.91873 14.6819 7.32616 14.3818 7.62622C14.0818 7.92628 13.6743 8.09399 13.25 8.09399H11.8496V10.8948H17.75C18.1743 10.8948 18.5818 11.0625 18.8818 11.3625C19.1819 11.6626 19.3496 12.07 19.3496 12.4944V15.5256C20.0485 15.7249 20.6565 16.162 21.0654 16.7649C21.4889 17.3894 21.6703 18.1472 21.5752 18.8958C21.4801 19.6442 21.1149 20.3326 20.5488 20.8313C19.9827 21.3298 19.2543 21.6047 18.5 21.6047C17.7457 21.6047 17.0172 21.3298 16.4512 20.8313C15.8851 20.3326 15.5199 19.6442 15.4248 18.8958C15.3297 18.1472 15.5111 17.3894 15.9346 16.7649C16.3435 16.162 16.9515 15.7249 17.6504 15.5256V12.594H11.8496V15.5266C12.5486 15.7259 13.1566 16.163 13.5654 16.7659C13.9888 17.3902 14.1701 18.1474 14.0752 18.8958C13.9801 19.6443 13.615 20.3325 13.0488 20.8313C12.4827 21.33 11.7545 21.6057 11 21.6057C10.2455 21.6057 9.5173 21.33 8.95117 20.8313C8.38503 20.3325 8.01988 19.6443 7.9248 18.8958C7.82987 18.1474 8.01119 17.3902 8.43457 16.7659C8.84344 16.163 9.45143 15.7259 10.1504 15.5266V12.594H4.34961V15.5266C5.04858 15.7259 5.65656 16.1629 6.06543 16.7659C6.48881 17.3902 6.67013 18.1474 6.5752 18.8958C6.48012 19.6443 6.11497 20.3325 5.54883 20.8313C4.9827 21.33 4.25448 21.6057 3.5 21.6057C2.74551 21.6057 2.0173 21.33 1.45117 20.8313C0.88503 20.3325 0.519877 19.6443 0.424805 18.8958C0.329866 18.1474 0.511189 17.3902 0.93457 16.7659C1.34344 16.163 1.95143 15.7259 2.65039 15.5266V12.4944C2.65039 12.07 2.81811 11.6626 3.11816 11.3625C3.41822 11.0625 3.82566 10.8948 4.25 10.8948H10.1504V8.09399H8.75C8.32566 8.09399 7.91822 7.92628 7.61816 7.62622C7.31811 7.32616 7.15039 6.91873 7.15039 6.49438V1.99438C7.15039 1.57004 7.31811 1.16261 7.61816 0.862549C7.91822 0.562492 8.32566 0.394777 8.75 0.394775H13.25ZM19.0361 17.2014C18.7803 17.0955 18.4981 17.0673 18.2266 17.1213C17.9551 17.1754 17.7055 17.3084 17.5098 17.5042C17.314 17.6999 17.181 17.9495 17.127 18.2209C17.0729 18.4925 17.1011 18.7747 17.207 19.0305C17.313 19.2861 17.4926 19.5047 17.7227 19.6584C17.9528 19.8121 18.2232 19.8948 18.5 19.8948C18.8713 19.8948 19.2277 19.7472 19.4902 19.4846C19.7528 19.2221 19.9004 18.8657 19.9004 18.4944C19.9004 18.2176 19.8178 17.9472 19.6641 17.717C19.5103 17.487 19.2917 17.3074 19.0361 17.2014ZM3.5 17.094C3.22323 17.094 2.95282 17.1766 2.72266 17.3303C2.49257 17.4841 2.31302 17.7026 2.20703 17.9583C2.10107 18.2141 2.07293 18.4962 2.12695 18.7678C2.18101 19.0393 2.31405 19.2889 2.50977 19.4846C2.70548 19.6803 2.95511 19.8134 3.22656 19.8674C3.49814 19.9215 3.78032 19.8933 4.03613 19.7874C4.29174 19.6814 4.51032 19.5018 4.66406 19.2717C4.81776 19.0416 4.90039 18.7712 4.90039 18.4944C4.90039 18.1231 4.75279 17.7667 4.49023 17.5042C4.22768 17.2416 3.8713 17.094 3.5 17.094ZM10.8965 17.0979C10.6562 17.1157 10.424 17.1958 10.2227 17.3303C9.99257 17.4841 9.81302 17.7026 9.70703 17.9583C9.60107 18.2141 9.57293 18.4962 9.62695 18.7678C9.68101 19.0393 9.81405 19.2889 10.0098 19.4846C10.2055 19.6803 10.4551 19.8134 10.7266 19.8674C10.9981 19.9215 11.2803 19.8933 11.5361 19.7874C11.7917 19.6814 12.0103 19.5018 12.1641 19.2717C12.3178 19.0416 12.4004 18.7712 12.4004 18.4944C12.3998 18.1233 12.2517 17.7676 11.9893 17.5051C11.7268 17.2427 11.3711 17.0946 11 17.094L10.8965 17.0979ZM8.84961 6.39478H13.1504V2.09399H8.84961V6.39478Z" fill="#9CA3AF" stroke="#9CA3AF" stroke-width="0.2"/>
</svg>