<svg xmlns="http://www.w3.org/2000/svg" width="24" height="24" viewBox="0 0 24 24" fill="none">
    <path d="M3.875 6H2.625C2.27982 6 2 6.26863 2 6.6V7.8C2 8.13137 2.27982 8.4 2.625 8.4H3.875C4.22018 8.4 4.5 8.13137 4.5 7.8V6.6C4.5 6.26863 4.22018 6 3.875 6Z" fill="#9CA3AF"/>
    <path d="M3.875 10.8H2.625C2.27982 10.8 2 11.0686 2 11.4V12.6C2 12.9314 2.27982 13.2 2.625 13.2H3.875C4.22018 13.2 4.5 12.9314 4.5 12.6V11.4C4.5 11.0686 4.22018 10.8 3.875 10.8Z" fill="#9CA3AF"/>
    <path d="M3.875 15.6H2.625C2.27982 15.6 2 15.8686 2 16.2V17.4C2 17.7314 2.27982 18 2.625 18H3.875C4.22018 18 4.5 17.7314 4.5 17.4V16.2C4.5 15.8686 4.22018 15.6 3.875 15.6Z" fill="#9CA3AF"/>
    <path d="M20.75 8.4H8.25C7.91848 8.4 7.60054 8.27357 7.36612 8.04853C7.1317 7.82348 7 7.51826 7 7.2C7 6.88174 7.1317 6.57652 7.36612 6.35147C7.60054 6.12643 7.91848 6 8.25 6H20.75C21.0815 6 21.3995 6.12643 21.6339 6.35147C21.8683 6.57652 22 6.88174 22 7.2C22 7.51826 21.8683 7.82348 21.6339 8.04853C21.3995 8.27357 21.0815 8.4 20.75 8.4Z" fill="#9CA3AF"/>
    <path d="M20.75 13.2H8.25C7.91848 13.2 7.60054 13.0736 7.36612 12.8485C7.1317 12.6235 7 12.3183 7 12C7 11.6817 7.1317 11.3765 7.36612 11.1515C7.60054 10.9264 7.91848 10.8 8.25 10.8H20.75C21.0815 10.8 21.3995 10.9264 21.6339 11.1515C21.8683 11.3765 22 11.6817 22 12C22 12.3183 21.8683 12.6235 21.6339 12.8485C21.3995 13.0736 21.0815 13.2 20.75 13.2Z" fill="#9CA3AF"/>
    <path d="M20.75 18H8.25C7.91848 18 7.60054 17.8736 7.36612 17.6485C7.1317 17.4235 7 17.1183 7 16.8C7 16.4817 7.1317 16.1765 7.36612 15.9515C7.60054 15.7264 7.91848 15.6 8.25 15.6H20.75C21.0815 15.6 21.3995 15.7264 21.6339 15.9515C21.8683 16.1765 22 16.4817 22 16.8C22 17.1183 21.8683 17.4235 21.6339 17.6485C21.3995 17.8736 21.0815 18 20.75 18Z" fill="#9CA3AF"/>
</svg>