<svg xmlns="http://www.w3.org/2000/svg" width="24" height="24" viewBox="0 0 24 24" fill="none">
    <path d="M12 11.4737C14.6765 11.4737 16.8462 9.35293 16.8462 6.73684C16.8462 4.12076 14.6765 2 12 2C9.32354 2 7.15385 4.12076 7.15385 6.73684C7.15385 9.35293 9.32354 11.4737 12 11.4737Z" fill="#9CA3AF"/>
    <path d="M13.6154 12.5263H10.3846C8.95705 12.528 7.58845 13.083 6.57901 14.0697C5.56957 15.0564 5.00171 16.3941 5 17.7895V20.9474C5 21.2265 5.11346 21.4943 5.31542 21.6917C5.51739 21.8891 5.79131 22 6.07692 22H17.9231C18.2087 22 18.4826 21.8891 18.6846 21.6917C18.8865 21.4943 19 21.2265 19 20.9474V17.7895C18.9983 16.3941 18.4304 15.0564 17.421 14.0697C16.4116 13.083 15.0429 12.528 13.6154 12.5263Z" fill="#9CA3AF"/>
</svg>